<?xml version="1.0" encoding="UTF-8"?>
<!DOCTYPE svg PUBLIC "-//W3C//DTD SVG 1.1//EN" "http://www.w3.org/Graphics/SVG/1.1/DTD/svg11.dtd">
<!-- Creator: CorelDRAW X7 -->
<svg xmlns="http://www.w3.org/2000/svg" xml:space="preserve" width="12.09mm" height="13.8798mm" version="1.1" style="shape-rendering:geometricPrecision; text-rendering:geometricPrecision; image-rendering:optimizeQuality; fill-rule:evenodd; clip-rule:evenodd"
viewBox="0 0 1209 1388"
 xmlns:xlink="http://www.w3.org/1999/xlink">
 <defs>
  <style type="text/css">
   <![CDATA[
    .str0 {stroke:white;stroke-width:7.62}
    .fil0 {fill:#00ADB5}
   ]]>
  </style>
 </defs>
 <g id="Layer_x0020_1">
  <metadata id="CorelCorpID_0Corel-Layer"/>
  <path class="fil0 str0" d="M898 1091c24,12 91,19 154,83 36,36 85,99 86,154l-257 0c7,-11 13,-19 22,-29 82,-101 95,-91 -15,-164 2,-18 9,-28 10,-44zm-657 117c0,15 49,67 65,89 4,6 7,10 11,15 8,9 8,4 11,16l-257 0c1,-51 53,-118 86,-151 32,-32 110,-82 154,-86 2,16 9,26 10,44 -19,12 -80,48 -80,73zm580 -60c0,11 5,17 11,22l59 41c-17,26 -80,98 -90,117l-90 0c12,-25 91,-273 94,-300l37 36c-5,21 -21,63 -21,84zm-453 -90c0,-7 10,-16 15,-22 6,-8 10,-13 18,-18 1,11 7,29 10,40 10,38 76,247 87,270l-90 0c-10,-19 -73,-91 -90,-117 15,-8 70,-42 70,-60 0,-33 -20,-65 -20,-93zm367 -10c-1,13 -10,40 -14,53 -5,16 -11,36 -17,53 -6,18 -32,91 -33,104 -9,-7 -3,3 -12,-31l-20 -67c-6,-20 4,-31 16,-62 11,-27 21,-19 80,-50zm-260 0c9,5 18,10 28,15 38,19 40,6 51,35 23,60 23,36 6,95l-14 50c-5,16 3,7 -8,15 -1,-14 -11,-37 -15,-51l-34 -104c-4,-13 -14,-42 -14,-55zm260 0l0 0zm-260 0l0 0zm336 -487c68,16 17,103 -3,103l-20 0c-1,42 -16,96 -34,133 -8,16 -11,23 -29,27 0,29 5,134 -3,151 -11,21 -70,50 -104,50l-27 0c-34,0 -92,-29 -103,-50 -8,-17 -3,-122 -3,-151 -41,-9 -64,-127 -64,-160l-20 0c-20,0 -55,-69 -25,-92 7,-5 13,-9 22,-11 -1,-24 -12,-36 -13,-57 21,0 30,3 46,4 20,1 31,3 47,3 103,3 151,6 257,0 31,-2 67,-8 96,-10 -7,14 -20,39 -20,60zm-296 -430l0 143c0,35 60,50 60,-10l-1 -177c0,-31 -5,-26 51,-26 13,0 10,10 10,23l0 177c-1,69 60,40 60,20l0 -150c80,0 133,93 146,167 6,38 -6,75 37,90 14,5 23,5 23,40 -112,26 -237,23 -356,23 -65,0 -119,-7 -180,-14 -18,-2 -41,-5 -57,-9 0,-9 1,-21 4,-27 9,-21 38,-6 50,-42 9,-25 -7,-62 39,-151 9,-18 15,-23 28,-36 18,-18 52,-41 86,-41zm0 -67c-31,0 -68,17 -88,29 -76,48 -122,142 -122,238 -28,14 -40,20 -52,51 -11,28 -12,59 -12,96 20,4 51,13 74,13 3,15 9,31 13,47 -10,2 -12,5 -19,21 -18,43 -3,88 19,121 22,33 35,17 40,44 26,129 54,107 54,147 0,20 -1,40 -1,60 -21,2 -48,30 -61,43 -17,17 -25,22 -38,41 -14,19 -40,19 -91,39 -202,80 -280,334 -200,334l1147 0c67,0 13,-163 -44,-223 -20,-21 -26,-31 -54,-52 -69,-55 -106,-62 -178,-82 -16,-4 -15,-12 -26,-24 -21,-22 -57,-65 -88,-72 0,-19 0,-38 0,-57 -1,-54 28,-22 52,-148 6,-30 6,-14 33,-41 27,-27 45,-82 28,-128 -4,-10 -8,-20 -20,-23 6,-12 14,-33 17,-47 21,0 52,-9 70,-13 0,-36 -1,-67 -10,-93 -5,-15 -10,-23 -21,-33 -16,-17 -12,-11 -32,-21 0,-93 -47,-189 -121,-236 -19,-12 -59,-31 -89,-31 -7,-76 -80,-63 -124,-63 -26,0 -54,30 -56,63z"/>
 </g>
</svg>
