<?xml version="1.0" encoding="UTF-8"?>
<!DOCTYPE svg PUBLIC "-//W3C//DTD SVG 1.1//EN" "http://www.w3.org/Graphics/SVG/1.1/DTD/svg11.dtd">
<!-- Creator: CorelDRAW X7 -->
<svg xmlns="http://www.w3.org/2000/svg" xml:space="preserve" width="13.1mm" height="13.5mm" version="1.1" style="shape-rendering:geometricPrecision; text-rendering:geometricPrecision; image-rendering:optimizeQuality; fill-rule:evenodd; clip-rule:evenodd"
viewBox="0 0 1310 1350"
 xmlns:xlink="http://www.w3.org/1999/xlink">
 <defs>
  <style type="text/css">
   <![CDATA[
    .fil0 {fill:#00ADB5}
   ]]>
  </style>
 </defs>
 <g id="Layer_x0020_1">
  <metadata id="CorelCorpID_0Corel-Layer"/>
  <g id="_2219230421584">
   <path class="fil0" d="M569 163l4 5 -3 14 -19 3 -29 2 -64 28c-17,11 -8,1 -12,17 11,5 58,59 62,70 15,8 15,9 22,25l12 8c16,17 9,19 35,24 6,-5 0,-1 10,-5 2,-1 4,-2 6,-3 34,-11 91,-7 125,-8 47,2 89,29 131,48 16,4 10,1 14,8 8,2 3,0 10,4 1,1 2,4 2,3 1,-1 2,2 2,3l9 4c9,0 6,-2 6,8 12,7 16,16 27,21l13 14 8 14c13,7 7,0 15,15l0 2c8,6 3,1 10,9 5,6 -1,-3 4,8l2 11c9,6 6,3 7,16 8,7 5,-10 9,12 19,15 32,64 33,86l-3 23c17,25 5,140 -15,162 1,16 -3,26 -12,36l-21 47c-5,10 -1,3 -7,11 -1,1 -3,3 -3,3 -1,-1 -3,1 -4,2l-62 63c-6,9 -1,7 -15,13l0 -1c-6,10 2,8 -16,15l-13 8 -16 9 -23 6c-18,21 -81,30 -116,31 -28,2 -71,1 -87,-7 -50,-6 -73,-25 -110,-38 -9,-3 -3,-1 -10,-6 -1,0 -2,-1 -3,-2 0,-2 -1,-2 -2,-3l-8 -5c-9,0 -7,2 -4,-7 -24,-11 -49,-34 -59,-55l-15 -17c-9,-5 -7,2 -14,-16l4 -2 -18 -23c-5,-8 -8,-15 -13,-25 -9,-20 -16,-37 -20,-62l-1 -18c-30,-37 6,-176 6,-198 -10,1 -10,-2 -14,-10l-8 0c-8,-5 -4,-2 -10,-7 -1,-1 -2,-2 -2,-3 -1,-2 -1,-2 -2,-3 -7,-2 -2,3 -13,-6 -8,-7 -1,-1 -7,-11l-21 -14c-7,-4 -9,-4 -14,-8 -8,-7 -1,-1 -7,-11l-11 -11 -26 -14c-11,10 -13,16 -16,32 -3,14 -6,21 -10,35 -1,3 -3,13 -4,14 -7,17 -3,7 -9,14l-4 17c-12,16 -81,19 -100,19l-20 9c-12,223 6,156 36,182 11,-1 16,-1 26,0 2,1 9,2 11,3 9,3 6,1 11,5l-1 -3 35 2 24 86 7 14c5,5 3,1 8,10 4,8 -2,-9 2,10l21 49c5,4 6,2 12,13 5,9 3,2 2,14 -4,7 -5,9 -8,14 -6,6 -3,2 -9,5 -2,8 -1,8 -6,13 -6,8 -1,1 -10,8l0 3c-8,16 -5,9 -15,15l1 3c-4,7 -4,9 -8,14 -6,7 -2,2 -10,7l-8 4c3,11 1,8 6,18 10,4 8,-5 8,5 7,0 5,-2 3,6 8,2 7,-7 7,3 8,0 4,-1 4,8 8,8 12,11 18,17 10,10 9,7 13,17 13,8 9,4 16,17l46 42c20,-6 14,-11 29,-14 7,-10 -2,0 10,-12 5,-5 7,-6 13,-10 11,-9 16,-14 26,-21l22 -16c11,3 18,5 23,14 14,5 4,-1 17,7 13,8 5,3 11,10 17,2 61,20 73,30 10,1 39,8 49,11 20,7 15,19 17,47l10 80c23,7 153,6 178,1l10 -79c1,-7 1,-25 2,-32 3,-16 3,-12 19,-16 13,-5 68,-25 82,-24l32 -19c14,-8 17,-11 33,-16l22 -15 18 13c14,8 8,3 14,15 27,10 50,47 74,46 7,-14 2,-5 11,-16 4,-5 9,-9 14,-14 11,-11 17,-20 31,-27l35 -36c10,-20 24,-17 22,-40 -10,-5 -8,1 -15,-15l4 -3c-10,-4 -6,5 -8,-5 -12,-7 -8,-1 -15,-16l1 -3c-10,-6 -4,-1 -11,-8 -6,-6 1,2 -5,-8l1 -3c-13,-7 -7,0 -15,-15 -7,-17 -10,-9 -3,-28 1,-1 7,-12 8,-13 8,-10 3,-5 10,-10l11 -30c3,-13 -1,-4 4,-14 5,-10 -1,-3 9,-10l1 -3c3,-12 3,-15 7,-27 0,0 4,-8 5,-10 5,-10 -1,-2 5,-9l8 -38c4,-18 2,-13 26,-17l97 -10c5,-22 5,-161 0,-185l-42 -3 -76 -8c-9,-16 -17,-53 -24,-74 -6,-20 -23,-53 -24,-65 -12,-8 -2,5 -15,-14 -2,-4 -6,-12 -8,-18l-1 -10c-11,-9 -3,-11 2,-23 5,-10 1,-4 8,-11 0,-1 3,0 3,-2 1,-2 3,-2 4,-2l15 -22c3,-8 3,-9 7,-14 6,-7 2,-2 10,-8 1,-1 4,-6 7,-9 8,-9 1,-3 12,-10 -5,-21 -7,-13 -13,-27 -15,-8 -19,-15 -31,-27 -9,-10 -17,-15 -25,-30 -11,-3 -35,-27 -39,-40 -8,-3 -11,-6 -21,-5l-14 11 -26 19c-6,10 0,4 -10,13 -9,8 -3,1 -12,6 -10,7 -20,18 -28,19 -13,2 -18,-7 -30,-11 -10,-3 -4,0 -12,-5 -1,-1 -3,-1 -3,-3 -1,-2 -2,-2 -3,-4l-28 -16c-9,-2 -105,-33 -113,-36l0 -28c-16,-20 -9,-67 -18,-95l-172 1c-3,17 -6,37 -8,54 -2,18 0,43 -9,54z"/>
   <path class="fil0" d="M93 83c24,-30 69,2 70,35 2,31 -10,27 -11,28l-2 6c0,6 1,5 -4,2 -7,10 5,2 -11,11 -4,2 -5,2 -10,3 -28,4 -45,-9 -52,-34 -3,-5 -6,-16 -1,-32 2,-4 6,-10 10,-14 7,-6 3,-3 11,-5zm-54 -49c-1,8 1,5 -7,6 -7,16 -9,14 -17,25 -4,11 2,0 -5,12 -5,7 -3,3 -9,8 -1,20 -1,39 3,61 6,5 9,13 16,20 5,6 8,7 12,12 6,9 4,4 6,11 42,21 138,135 190,178l12 12 9 9 11 12c4,5 3,2 7,8 10,12 3,1 9,13 7,0 4,-7 5,2l9 5c8,0 5,-2 5,8 5,3 11,8 16,13 3,3 3,4 6,7 6,9 1,0 4,8 12,6 5,1 16,11 4,3 7,7 12,11 10,10 15,13 22,28 11,3 16,10 25,19 4,4 8,8 11,12 7,8 4,4 7,10 17,9 17,17 31,23 8,6 13,10 18,15 10,11 5,5 10,17 8,5 18,14 26,23 10,10 16,14 7,30 -11,67 -14,67 -3,138l6 26 12 13c3,6 5,11 7,15 10,6 7,1 11,14 10,5 5,-3 7,12 14,4 0,-9 16,11 5,9 6,8 13,13 7,4 9,4 14,8 10,7 1,0 8,9l6 2 20 11c12,0 -3,-5 13,2 13,6 3,0 10,7 24,7 51,9 80,7l-11 -24c-9,-6 -3,-1 -10,-9 -6,-6 1,5 -4,-8l-5 -11c-9,-7 -8,7 -9,-7l-2 -9 -3 -3c-9,-6 -6,2 -14,-16l-20 -30c-8,-6 -3,1 -11,-11 -8,-11 -1,0 -4,-10 -6,-4 -2,-1 -8,-7 -6,-7 1,3 -5,-8 -6,-55 -7,-25 8,-69 10,-14 1,-8 14,-10 4,-5 1,-3 7,-8 9,-7 -5,2 8,-4l3 1c6,-10 -1,-6 15,-16 8,-3 12,-6 18,-9 5,-8 1,-3 8,-10 5,-5 -2,1 8,-4 24,-13 56,-23 75,2 14,6 3,-3 14,10 8,9 0,1 5,11l14 25c11,7 8,0 16,17l0 2c8,6 6,-2 13,17l26 44 3 1c8,5 3,1 10,8 6,7 -1,-3 3,7l-3 3 1 1 16 4c2,-4 5,-16 7,-22 0,0 4,-11 4,-11 4,-10 3,-6 6,-11l-2 -11c4,-93 -9,-109 -47,-168 -9,-5 -8,6 -10,-5l-2 -9 -42 -32c-8,-3 0,3 -11,-5 -8,-4 -4,-3 -9,-8 -27,-5 -41,-16 -79,-18 -20,-1 -76,9 -81,5 -11,-5 -7,1 -15,-11 -105,-119 -215,-233 -322,-346 -8,-8 -14,-13 -19,-23 -15,-7 -10,-3 -23,-19 -4,-11 -6,-10 -14,-18 -3,-3 -6,-7 -9,-10 -6,-9 -1,1 -3,-8 -15,-8 -7,-2 -19,-14 -5,-5 -6,-7 -12,-12l-11 -11 -11 -12c-6,-12 -16,-17 -21,-28 -23,-7 -36,-19 -67,-12 -12,3 -19,7 -28,14 -13,11 -8,10 -23,18z"/>
  </g>
 </g>
</svg>
