<?xml version="1.0" encoding="UTF-8"?>
<!DOCTYPE svg PUBLIC "-//W3C//DTD SVG 1.1//EN" "http://www.w3.org/Graphics/SVG/1.1/DTD/svg11.dtd">
<!-- Creator: CorelDRAW X7 -->
<svg xmlns="http://www.w3.org/2000/svg" xml:space="preserve" width="225.73mm" height="151.19mm" version="1.1" style="shape-rendering:geometricPrecision; text-rendering:geometricPrecision; image-rendering:optimizeQuality; fill-rule:evenodd; clip-rule:evenodd"
viewBox="0 0 22573 15119"
 xmlns:xlink="http://www.w3.org/1999/xlink">
 <defs>
  <style type="text/css">
   <![CDATA[
    .str1 {stroke:white;stroke-width:75}
    .str0 {stroke:white;stroke-width:50}
    .str2 {stroke:black;stroke-width:20}
    .fil2 {fill:none}
    .fil0 {fill:#52C0D8}
    .fil19 {fill:black}
    .fil12 {fill:#012837}
    .fil8 {fill:#0B141B}
    .fil14 {fill:#14556B}
    .fil13 {fill:#285C6A}
    .fil11 {fill:#2C8299}
    .fil10 {fill:#2C8299}
    .fil9 {fill:#3CB6CE}
    .fil16 {fill:#4E2D3E}
    .fil15 {fill:#533443}
    .fil5 {fill:#9E0000}
    .fil7 {fill:#DEE2E3}
    .fil18 {fill:#F6D0A9}
    .fil17 {fill:#F8D9BD}
    .fil1 {fill:white}
    .fil6 {fill:url(#id19)}
    .fil3 {fill:url(#id20)}
    .fil4 {fill:url(#id21)}
   ]]>
  </style>
    <mask id="id0">
  <linearGradient id="id1" gradientUnits="userSpaceOnUse" x1="18711" y1="2819" x2="19744" y2="7867.8">
   <stop offset="0" style="stop-opacity:0; stop-color:white"/>
   <stop offset="0.321569" style="stop-opacity:-127.502; stop-color:white"/>
   <stop offset="1" style="stop-opacity:1; stop-color:white"/>
  </linearGradient>
     <rect style="fill:url(#id1)" x="17710" y="3012" width="3034" height="4663"/>
    </mask>
    <mask id="id2">
  <linearGradient id="id3" gradientUnits="userSpaceOnUse" x1="19777.6" y1="9672.91" x2="20951.8" y2="6565.53">
   <stop offset="0" style="stop-opacity:0; stop-color:white"/>
   <stop offset="0.380392" style="stop-opacity:-127.502; stop-color:white"/>
   <stop offset="1" style="stop-opacity:1; stop-color:white"/>
  </linearGradient>
     <rect style="fill:url(#id3)" x="19006" y="6505" width="2717" height="3228"/>
    </mask>
   <mask id="id4">
  <linearGradient id="id5" gradientUnits="userSpaceOnUse" x1="14721.5" y1="5959.36" x2="15194.2" y2="9660.84">
   <stop offset="0" style="stop-opacity:0; stop-color:white"/>
   <stop offset="1" style="stop-opacity:0.415686; stop-color:white"/>
  </linearGradient>
    <rect style="fill:url(#id5)" x="12342" y="5194" width="5232" height="5232"/>
   </mask>
   <mask id="id6">
  <linearGradient id="id7" gradientUnits="userSpaceOnUse" x1="7647.16" y1="5298.25" x2="6546.18" y2="564.07">
   <stop offset="0" style="stop-opacity:0; stop-color:white"/>
   <stop offset="0.211765" style="stop-opacity:-127.502; stop-color:white"/>
   <stop offset="1" style="stop-opacity:1; stop-color:white"/>
  </linearGradient>
    <rect style="fill:url(#id7)" x="4354" y="-8" width="5486" height="5878"/>
   </mask>
   <mask id="id8">
  <linearGradient id="id9" gradientUnits="userSpaceOnUse" x1="4887.88" y1="2752.14" x2="2175.06" y2="7739.82">
   <stop offset="0" style="stop-opacity:0; stop-color:white"/>
   <stop offset="0.321569" style="stop-opacity:-127.502; stop-color:white"/>
   <stop offset="1" style="stop-opacity:1; stop-color:white"/>
  </linearGradient>
    <rect style="fill:url(#id9)" x="1882" y="2896" width="3300" height="4699"/>
   </mask>
   <mask id="id10">
  <linearGradient id="id11" gradientUnits="userSpaceOnUse" x1="2239.45" y1="9334.24" x2="1901.99" y2="6133.58">
   <stop offset="0" style="stop-opacity:0; stop-color:white"/>
   <stop offset="0.380392" style="stop-opacity:-127.502; stop-color:white"/>
   <stop offset="1" style="stop-opacity:1; stop-color:white"/>
  </linearGradient>
    <rect style="fill:url(#id11)" x="835" y="6014" width="2471" height="3439"/>
   </mask>
     <clipPath id="id12">
      <path d="M5663 1714l3374 0 0 1591 -3374 0 0 -1591z"/>
     </clipPath>
    <mask id="id13">
  <linearGradient id="id14" gradientUnits="userSpaceOnUse" x1="6703.33" y1="2572.34" x2="6967.55" y2="1722.66">
   <stop offset="0" style="stop-opacity:0; stop-color:white"/>
   <stop offset="1" style="stop-opacity:1; stop-color:white"/>
  </linearGradient>
     <rect style="fill:url(#id14)" x="5663" y="1486" width="2346" height="1322"/>
    </mask>
    <mask id="id15">
  <linearGradient id="id16" gradientUnits="userSpaceOnUse" x1="6652.14" y1="2935.64" x2="6628.28" y2="2002">
   <stop offset="0" style="stop-opacity:0; stop-color:white"/>
   <stop offset="1" style="stop-opacity:1; stop-color:white"/>
  </linearGradient>
     <rect style="fill:url(#id16)" x="5545" y="1930" width="2190" height="1077"/>
    </mask>
    <mask id="id17">
  <linearGradient id="id18" gradientUnits="userSpaceOnUse" x1="8868.94" y1="2825.02" x2="7937.92" y2="1750.44">
   <stop offset="0" style="stop-opacity:0; stop-color:white"/>
   <stop offset="1" style="stop-opacity:1; stop-color:white"/>
  </linearGradient>
     <rect style="fill:url(#id18)" x="7900" y="1636" width="1006" height="1303"/>
    </mask>
  <linearGradient id="id19" gradientUnits="userSpaceOnUse" x1="6694.42" y1="556.81" x2="16822.1" y2="7998.99">
   <stop offset="0" style="stop-opacity:1; stop-color:#3DD42F"/>
   <stop offset="1" style="stop-opacity:1; stop-color:#1EAF50"/>
  </linearGradient>
  <linearGradient id="id20" gradientUnits="userSpaceOnUse" x1="4670.07" y1="11688.9" x2="8245.47" y2="5560">
   <stop offset="0" style="stop-opacity:1; stop-color:#3ED62E"/>
   <stop offset="1" style="stop-opacity:1; stop-color:#D7E4DA"/>
  </linearGradient>
  <linearGradient id="id21" gradientUnits="userSpaceOnUse" x1="3652.97" y1="14857.1" x2="18940.8" y2="5550.4">
   <stop offset="0" style="stop-opacity:1; stop-color:#17A658"/>
   <stop offset="1" style="stop-opacity:1; stop-color:#4DE81E"/>
  </linearGradient>
 </defs>
 <g id="Layer_x0020_1">
  <metadata id="CorelCorpID_0Corel-Layer"/>
  <g id="_2277683440192">
   <path class="fil0" d="M17985 5881c-126,-336 -214,-631 -265,-885 152,-82 329,-138 500,-78 136,47 267,200 380,236 204,66 366,5 215,-140 -288,-277 -285,-725 -299,-1054 -54,-1219 963,65 1064,-364 80,-337 -98,-615 440,-995 150,-107 323,-146 500,-169 380,-49 640,942 -14,1364 -1095,705 810,451 800,1129 -10,677 -1580,382 -1371,998 89,264 1061,209 731,747 -238,388 -510,275 -816,499 -176,-168 -366,-168 -570,0 -134,122 -222,288 -264,496 -164,-226 -318,-445 -464,-656 -184,-272 -374,-647 -567,-1128z"/>
   <path class="fil1" style="mask:url(#id0)" d="M18304 6587c303,498 540,857 712,1078 81,-323 225,-522 432,-597 122,-58 256,-24 402,101 134,-88 305,-161 512,-219 146,-57 266,-189 359,-396 37,-115 0,-209 -111,-283 -89,-56 -220,-111 -391,-163 -115,-35 -202,-82 -259,-141 -57,-93 -58,-184 -6,-273 -558,-251 -971,-895 -321,-1271 332,-192 415,-711 328,-1068 -35,-145 -146,-377 -309,-326 -26,74 -41,166 -43,275 0,104 -10,201 -29,292 -15,75 -65,104 -150,87 -78,-22 -164,-58 -256,-110 -83,-47 -179,-91 -289,-132 -138,-40 -233,-23 -287,51 -66,86 -93,242 -82,468 0,176 17,362 49,559 26,132 70,248 132,349 30,49 69,98 118,146 54,39 67,85 40,139 -51,34 -127,37 -227,9 -63,-17 -126,-53 -191,-108 -62,-48 -111,-83 -149,-104 -160,-89 -349,-73 -568,46 92,469 287,999 584,1591z"/>
   <path class="fil2 str0" d="M17973 5189c-21,92 -25,256 -7,311 347,1058 1289,518 1245,1740 -71,-145 511,-3215 653,-3415 141,-201 313,-521 576,-770l15 -25"/>
   <path class="fil2 str0" d="M19583 4945c-339,-263 -131,-810 -548,-1027"/>
   <path class="fil2 str0" d="M19515 5349c244,-430 873,-473 1154,-406 55,13 111,26 167,39"/>
   <path class="fil2 str0" d="M19228 6859c73,-86 22,-290 404,-243 294,35 589,43 822,-133"/>
   <path class="fil0" d="M19016 7665c458,660 657,1396 632,2058 254,-328 93,-376 863,-145 771,231 79,-626 36,-883 -44,-256 111,-284 390,-155 278,129 537,246 673,230 247,-22 288,-306 185,-568 -104,-261 -675,-616 -75,-646 300,83 544,-15 732,-293 149,-267 160,-459 34,-576 -325,-243 -836,-86 -1054,233 -322,612 -341,-1011 -918,-142 -166,248 -252,466 -260,654 -57,267 -181,323 -337,-127 -156,-451 -764,-311 -901,360z"/>
   <path class="fil1" style="mask:url(#id2)" d="M21503 6832c61,-61 120,-108 178,-141 134,321 -173,705 -495,880 -273,148 -1027,227 -530,895 -108,12 -141,103 -99,270 38,96 83,191 135,285 39,71 79,153 121,246 49,104 67,192 56,264 -26,81 -109,106 -248,74 -163,-44 -304,-84 -424,-120 -173,-61 -293,-67 -360,-19 -65,80 -128,165 -189,257 30,-645 -168,-1381 -632,-2058 67,-294 173,-455 375,-571 87,-43 166,-58 239,-48 149,21 250,139 287,259 39,122 88,221 147,296 65,66 119,44 161,-66 13,-38 23,-73 29,-103 6,-112 35,-226 87,-343 123,-276 261,-462 413,-557 77,-39 155,-10 233,88 35,48 69,106 104,176 34,73 72,141 114,205 60,93 128,79 205,-41 21,-42 52,-85 93,-128z"/>
   <g>
    <path class="fil2 str1" d="M22224 6976c-234,-56 -744,153 -911,325 -43,44 -247,144 -379,267 -203,188 -557,761 -745,891 -117,81 -349,419 -559,468 -5,1 -17,16 -20,20 79,-151 128,-266 77,-423 -81,-251 -269,-444 -186,-754 52,-194 38,-328 159,-510 3,-4 9,-15 15,-24"/>
    <path class="fil2 str1" d="M19630 8927c70,10 367,-263 732,121 47,50 201,130 263,119"/>
    <path class="fil2 str1" d="M20516 8089c26,-224 903,-234 1045,204l1 15"/>
    <path class="fil2 str1" d="M20744 7786c-54,-201 68,-379 154,-553 96,-193 -36,-334 -36,-335"/>
   </g>
  </g>
  <path class="fil3" d="M10766 6495c-549,-322 -1696,-1079 -2772,-1157 -751,-118 -1717,-82 -2897,106 -412,776 -928,1415 -1548,1918 -271,227 -505,461 -701,701 -854,1133 -925,2438 -212,3916 556,-950 1133,-1708 1733,-2276 496,-511 1139,-996 1932,-1455 1342,-768 2880,-1384 4465,-1753z"/>
  <path class="fil4" d="M4194 9876c-653,705 -1172,1407 -1558,2103 464,680 991,1172 1581,1475 502,293 1122,443 1862,450 895,-16 1645,-188 2249,-516 632,-378 1284,-704 1958,-979 1210,-465 2092,-703 2646,-714 1980,-350 2649,1199 3955,1283 1052,-34 1934,-559 2646,-1574 673,-1302 546,-2532 -380,-3691 -749,645 -1769,910 -3060,795 -1337,-158 -2793,-655 -4368,-1491 -335,-173 -693,-339 -998,-513 -1249,296 -2389,708 -3498,1253 -1272,610 -2284,1317 -3035,2119z"/>
  <path class="fil5 str2" style="mask:url(#id4)" d="M14958 5204c1439,0 2606,1167 2606,2606 0,1439 -1167,2606 -2606,2606 -1439,0 -2606,-1167 -2606,-2606 0,-1439 1167,-2606 2606,-2606z"/>
  <path class="fil6" d="M19153 7713c-1851,1548 -4969,979 -9456,-1828 -26,-13 -116,-59 -143,-71 -1171,-546 -2648,-688 -4457,-370 355,-659 282,-1416 -219,-2269 -165,-252 -297,-477 -396,-675 -259,-642 -92,-1237 502,-1786 578,-453 1244,-691 1998,-714 755,8 1377,251 1865,727 533,622 1115,1120 1746,1495 964,496 1978,566 3043,212 299,-192 603,-422 913,-688 851,-831 1803,-1051 2857,-661 2978,1945 116,3536 874,5199 290,558 581,1034 873,1429z"/>
  <path class="fil7" style="mask:url(#id6)" d="M6280 89c992,-225 1848,-13 2567,638 -70,961 24,1770 281,2428 154,564 388,1208 701,1932 -15,307 -74,589 -181,773 -1182,-579 -2701,-742 -4551,-416 317,-602 292,-1269 -74,-2002 -80,-164 -197,-364 -352,-599 -322,-486 -391,-960 -207,-1420 270,-640 875,-1085 1816,-1334z"/>
  <path class="fil0" d="M4710 6087c200,-298 354,-565 461,-801 -128,-115 -288,-209 -468,-190 -143,14 -306,132 -424,142 -214,17 -357,-80 -177,-186 344,-204 444,-640 534,-957 332,-1174 -953,-158 -953,-599 0,-347 237,-576 -199,-1070 -121,-138 -281,-216 -447,-279 -359,-136 -840,770 -301,1330 903,939 -892,253 -1038,915 -146,662 1450,735 1105,1287 -148,236 -1081,-41 -884,559 142,432 434,385 680,673 210,-123 395,-79 554,131 102,150 150,331 143,544 212,-183 412,-360 602,-532 243,-222 513,-544 812,-967z"/>
  <path class="fil1" style="mask:url(#id8)" d="M4237 6700c-409,415 -723,710 -941,886 -5,-333 -99,-560 -283,-681 -105,-84 -243,-82 -414,6 -110,-117 -260,-227 -448,-331 -129,-89 -215,-245 -258,-468 -10,-120 48,-203 173,-250 100,-34 239,-57 418,-69 120,-7 215,-33 285,-77 76,-78 98,-166 68,-264 600,-116 1151,-648 605,-1164 -279,-263 -241,-787 -74,-1114 68,-133 229,-334 376,-246 9,78 2,171 -21,277 -24,101 -37,198 -40,291 -2,76 40,116 126,119 82,-3 173,-19 275,-48 91,-26 195,-47 312,-61 143,-8 232,30 267,115 45,98 36,257 -27,474 -41,171 -100,349 -177,533 -56,122 -126,225 -209,309 -41,41 -90,79 -148,115 -61,25 -85,67 -71,126 42,45 115,65 218,61 65,-2 136,-23 212,-61 70,-33 127,-55 168,-67 176,-50 357,9 542,175 -197,435 -508,907 -934,1414z"/>
  <path class="fil2 str0" d="M4881 5416c0,94 -35,254 -65,304 -581,950 -1373,208 -1612,1407 102,-125 242,-3246 151,-3474 -92,-228 -185,-578 -384,-882l-9 -27"/>
  <path class="fil2 str0" d="M3370 4808c390,-178 314,-758 770,-874"/>
  <path class="fil2 str0" d="M3344 5217c-139,-475 -741,-661 -1030,-661 -57,0 -114,0 -172,0"/>
  <path class="fil2 str0" d="M3275 6753c-51,-101 46,-288 -337,-330 -295,-33 -583,-94 -769,-319"/>
  <path class="fil0" d="M3296 7586c-598,536 -960,1207 -1088,1857 -172,-377 -4,-388 -807,-340 -803,47 67,-627 169,-867 101,-240 -44,-303 -344,-241 -301,61 -579,116 -708,69 -236,-79 -210,-364 -50,-595 161,-230 799,-444 222,-612 -311,12 -526,-139 -645,-453 -83,-294 -50,-483 99,-569 373,-161 834,110 973,470 172,670 564,-905 926,73 104,279 138,511 102,696 -6,273 102,357 357,-46 256,-403 816,-126 794,558z"/>
  <path class="fil1" style="mask:url(#id10)" d="M1067 6203c-45,-74 -91,-133 -140,-179 -204,282 6,727 279,970 232,208 948,459 310,993 102,38 113,133 34,287 -59,85 -125,167 -197,246 -54,60 -112,130 -174,211 -72,90 -110,172 -115,244 7,85 82,128 224,130 169,-6 315,-13 441,-20 182,-19 300,2 354,64 44,93 86,191 125,294 119,-635 481,-1305 1088,-1857 3,-302 -63,-483 -233,-642 -75,-62 -148,-95 -222,-102 -149,-14 -275,77 -339,186 -66,110 -136,195 -211,254 -78,49 -125,15 -141,-101 -4,-41 -6,-76 -5,-107 20,-110 18,-228 -5,-354 -57,-297 -148,-509 -274,-637 -67,-56 -149,-45 -247,32 -45,39 -92,87 -142,147 -50,64 -103,122 -158,174 -80,77 -143,48 -190,-87 -11,-46 -31,-95 -62,-146z"/>
  <g id="_2277683451632">
   <path class="fil2 str1" d="M333 6177c240,0 689,320 812,526 32,53 207,197 308,347 153,229 366,868 519,1038 95,106 244,489 436,584 5,3 14,20 15,25 -41,-166 -63,-288 22,-430 137,-226 364,-370 355,-690 -6,-201 38,-328 -38,-534 -1,-4 -5,-17 -8,-26"/>
   <path class="fil2 str1" d="M2408 8672c-70,-5 -297,-340 -739,-50 -58,37 -226,80 -284,55"/>
   <path class="fil2 str1" d="M1739 7653c26,-224 -825,-435 -1064,-42l-5 14"/>
   <path class="fil2 str1" d="M1587 7306c98,-183 21,-385 -23,-574 -49,-210 112,-317 112,-317"/>
  </g>
  <g id="_2277683449744">
   <g>
    <g style="clip-path:url(#id12)">
     <image x="5663" y="1714" width="3374" height="1591" xlink:href="plan-1_Images\plan-1_ImgID1.png"/>
    </g>
   </g>
   <rect class="fil8" transform="matrix(0.997247 0.0741462 -0.0741462 0.997247 5633.84 1475.29)" width="3294" height="1363" rx="300" ry="300"/>
   <path class="fil9" style="mask:url(#id13)" d="M6076 1508c227,17 628,47 1200,89 -144,119 -223,452 129,572 352,119 1123,824 28,578 -698,-157 -1681,-1040 -1760,-1132 38,-50 88,-85 151,-105 57,-18 141,-18 252,-2z"/>
   <path class="fil10" style="mask:url(#id15)" d="M5555 2535c8,-103 14,-192 20,-267 311,-303 695,-396 1152,-278 240,63 498,252 774,565 124,170 198,317 224,442 -1112,-83 -1743,-129 -1893,-141 -187,-38 -279,-146 -277,-321z"/>
   <path class="fil11" style="mask:url(#id17)" d="M8620 1697c-264,-19 -493,-36 -688,-51 -60,374 5,646 194,817 179,171 399,327 660,466 24,-30 41,-72 51,-126 2,-16 4,-31 5,-46 22,-302 40,-548 55,-738 -13,-193 -105,-300 -277,-322z"/>
   <path class="fil2 str1" d="M6564 2508c10,-105 254,-469 372,-259 230,404 558,130 688,-157 81,-180 182,-141 245,23 274,710 377,-688 713,387 7,24 53,160 73,158"/>
   <path class="fil2 str1" d="M6005 1814c-140,48 -234,124 -254,291 -20,167 80,336 261,367 181,31 291,-68 354,-218"/>
   <path class="fil2 str1" d="M6171 1814c143,40 205,150 208,284"/>
  </g>
  <g id="_2277683448080">
   <path class="fil12" d="M5223 14335c-19,72 152,333 512,784 20,-111 6,-254 -39,-430 -13,-79 -18,-154 -14,-225 -118,-36 -183,-135 -195,-297 -130,6 -219,62 -264,168z"/>
   <path class="fil13" d="M10091 13022c174,-1108 278,-2096 311,-2963 -833,401 -1507,465 -2024,192 -217,823 -426,1391 -629,1706 -205,380 -476,748 -813,1105 -329,428 -747,895 -1254,1402 -130,-55 -195,-154 -195,-297 157,-415 338,-825 543,-1231 303,-632 614,-1117 932,-1455 -125,-1262 -99,-2071 80,-2427 1129,434 1947,339 2454,-285 769,6 1362,178 1779,516 188,211 259,546 212,1005 -194,992 -591,1980 -1191,2964 -116,-37 -184,-114 -205,-232z"/>
   <path class="fil12" d="M9853 13164c-81,79 128,319 628,721 25,-142 -24,-284 -145,-426 -36,-38 -50,-107 -40,-205 -115,-36 -184,-113 -205,-232 -75,-32 -154,16 -238,142z"/>
   <path class="fil14" d="M6460 13639c-265,298 -524,574 -778,825 -61,-24 -109,-63 -145,-115 905,-1090 1632,-2125 2179,-3106 190,-444 340,-838 450,-1181 63,118 133,181 212,189 -101,416 -249,867 -444,1353 -158,344 -374,694 -646,1050 -288,337 -564,666 -828,985z"/>
   <path class="fil14" d="M11207 11335c-187,574 -491,1214 -911,1919 -29,-8 -58,-22 -88,-42 187,-574 347,-1175 482,-1800 154,-558 326,-1052 516,-1482 81,-280 -143,-503 -675,-668 -390,-98 -916,-122 -1580,-72 234,-111 415,-252 545,-421 521,2 968,85 1340,249 518,250 671,435 665,1034 -17,336 -115,763 -294,1283z"/>
   <path class="fil15" d="M7283 6642c-300,1294 -380,2097 -241,2412 1061,445 1879,351 2454,-285 -75,-258 -132,-564 -172,-919 296,323 651,488 1065,496 656,-28 1315,-482 1978,-1363 -115,-141 -172,-212 -172,-212 -846,323 -1430,573 -1753,748 -175,-154 -431,-529 -768,-1125 -286,-379 -577,-578 -873,-595 -246,94 -469,80 -668,-40 -416,27 -1054,494 -1442,1085 -388,591 -132,1058 285,1740 47,-690 165,-1324 307,-1942z"/>
   <path class="fil16" d="M9496 8769c-291,314 -626,495 -1003,542 692,-200 862,-996 510,-2387 770,1071 1576,1414 2417,1029 -307,233 -651,364 -1031,393 -407,-4 -762,-169 -1065,-496 39,347 96,653 172,919z"/>
   <path class="fil17" d="M12195 6771c60,75 118,146 172,212 130,-153 251,-225 360,-215 139,-89 127,-175 -36,-258 -192,-75 -357,12 -496,261z"/>
   <path class="fil18" d="M8133 5759c216,121 439,135 668,40 -61,-71 -100,-173 -115,-308 214,-10 320,-215 317,-615 -97,0 -225,14 -225,14 -23,494 -208,639 -575,601 0,110 -23,199 -70,268z"/>
   <path class="fil19" d="M8778 4890c-3,450 -195,650 -575,601 -176,-17 -244,-123 -205,-317 -262,-282 -267,-496 -14,-642 -26,-211 57,-378 252,-502 233,-85 427,-37 582,145 175,-227 358,-200 549,80 76,290 -14,495 -271,615 31,-3 0,0 -93,6 -150,9 -225,14 -225,14z"/>
  </g>
  <line class="fil2 str1" x1="11758" y1="4842" x2="16068" y2= "4855" />
  <line class="fil2 str1" x1="11755" y1="5375" x2="15618" y2= "5375" />
  <line class="fil2 str1" x1="11755" y1="5904" x2="16359" y2= "5904" />
  <line class="fil2 str1" x1="11755" y1="4343" x2="15935" y2= "4343" />
  <line class="fil2 str1" x1="11758" y1="3863" x2="16332" y2= "3876" />
 </g>
</svg>
