<svg height="297.738" viewBox="0 0 260.508 297.738" width="260.508" xmlns="http://www.w3.org/2000/svg"><path d="m839.6 351.436h-12.761a111.539 111.539 0 0 0 -34.291-201.16l21.007-39.832a9.606 9.606 0 0 0 -4.07-12.938l-50.245-24.312a9.164 9.164 0 0 0 -7.2-.293 10.208 10.208 0 0 0 -5.488 5.124l-59.489 112.737c-4.743 9.815-1.09 21.408 8.139 25.877l-8.1 16.718 33.509 16.208 8.1-16.68c9.267 4.471 20.606.146 25.367-9.7l20.207-38.305c36.708 4.579 65.31 35.58 65.31 73.522a74.529 74.529 0 0 1 -74.431 74.431c-18.716 0-42.814-7.123-55.823-18.608v-9.305a9.286 9.286 0 0 1 9.3-9.3h46.52v-18.614h-148.861v18.608h46.518a9.288 9.288 0 0 1 9.305 9.3v46.521c-20.553 0-37.215-1.963-37.215 18.608h241.9c.003-20.57-16.662-18.607-37.208-18.607zm-65.133-254.366a12.924 12.924 0 0 0 -5.977 6.106l-42.829 80.791-16.319-7.922a19.033 19.033 0 0 1 .979-3.671l40.889-75.74a10.212 10.212 0 0 1 5.485-5.124 9.171 9.171 0 0 1 7.2.293l10.791 5.233c-.073.034-.143-.001-.219.034z" fill="#8c96a7" opacity=".06" transform="translate(-616.303 -72.306)"/></svg>