<svg height="330.144" viewBox="0 0 241.117 330.144" width="241.117" xmlns="http://www.w3.org/2000/svg"><g fill="#8c96a7" opacity=".06" transform="translate(-429.883 -17.995)"><path d="m559.1 110.711a44.531 44.531 0 1 1 -44.526-44.526 44.531 44.531 0 0 1 44.526 44.526z" transform="translate(78.065 93.676)"/><path d="m556.876 52.639a34.639 34.639 0 1 1 -34.644-34.639 34.645 34.645 0 0 1 34.644 34.639z" transform="translate(112.19)"/><path d="m473.53 40.255a20.891 20.891 0 1 1 -20.051 21.7 20.9 20.9 0 0 1 20.051-21.7z" transform="translate(45.838 43.239)"/><path d="m535.57 138.525a18.146 18.146 0 1 1 -15.411-20.531 18.156 18.156 0 0 1 15.411 20.531z" transform="translate(135.245 194.031)"/><path d="m477.171 104.583a23.644 23.644 0 1 1 -23.646-23.645 23.643 23.643 0 0 1 23.646 23.645z" transform="translate(0 122.355)"/><path d="m489.05 183.554a6.6 6.6 0 0 1 -4.678-8.078l37.888-142.4a6.6 6.6 0 0 1 8.075-4.678 6.584 6.584 0 0 1 4.678 8.069l-37.9 142.405a6.6 6.6 0 0 1 -8.066 4.681z" transform="translate(105.488 19.791)"/><path d="m525.992 136.752a4.441 4.441 0 0 1 -6.188-1.024l-57.644-80.452a4.436 4.436 0 0 1 1.019-6.182 4.444 4.444 0 0 1 6.191 1.024l57.641 80.454a4.427 4.427 0 0 1 -1.019 6.179z" transform="translate(61.133 58.848)"/><path d="m491.194 90.878a4.438 4.438 0 0 1 5.9 2.123l42.215 89.506a4.426 4.426 0 0 1 -2.111 5.9 4.435 4.435 0 0 1 -5.9-2.117l-42.227-89.506a4.44 4.44 0 0 1 2.123-5.905z" transform="translate(114.231 140.858)"/><path d="m555.635 86.249a4.8 4.8 0 0 1 -4.18 5.323l-105.986 12.877a4.781 4.781 0 0 1 -5.325-4.174 4.773 4.773 0 0 1 4.169-5.314l105.987-12.883a4.792 4.792 0 0 1 5.34 4.171z" transform="translate(19.876 124.503)"/></g></svg>