<svg height="296.553" viewBox="0 0 273.917 296.553" width="273.917" xmlns="http://www.w3.org/2000/svg"><path d="m572.44 239.311v-110.835a24.058 24.058 0 1 0 -27.54-36.138l-69.456-23.05c.069-.743.185-1.471.185-2.224a24.063 24.063 0 0 0 -48.125 0c0 .778.044 1.549.116 2.305l-68.414 22.916a24.06 24.06 0 1 0 -25.1 36.841v109.53a24.059 24.059 0 1 0 27.29 32.729l69.249 32.215a24.094 24.094 0 1 0 41.821.075l70.234-32.375a24.06 24.06 0 1 0 29.74-31.988zm-225.786 0v-110.835a24.121 24.121 0 0 0 10.868-7.408l70.523 32.807a24.031 24.031 0 0 0 18.455 28.576v29.119l-93.136 31.189a24.182 24.182 0 0 0 -6.71-3.448zm14.807 13.967 85.039-28.473v67.17a23.9 23.9 0 0 0 -6.2 2.277l-77.376-36a23.92 23.92 0 0 0 -1.463-4.974zm97.584 39.353v-67.048l83.561 27.736a23.557 23.557 0 0 0 -1.364 4.843l-78.374 36.128a23.948 23.948 0 0 0 -3.823-1.659zm0-80.268v-30.563a24.026 24.026 0 0 0 16.055-27.853l71.4-32.92a24.064 24.064 0 0 0 13.393 8.1v109.529a24.011 24.011 0 0 0 -9.177 4.134zm81.92-108.11c-.025.455-.063.9-.063 1.361a24.326 24.326 0 0 0 .339 4.024l-71.881 33.143a24 24 0 0 0 -10.316-6.715v-46.14a24.149 24.149 0 0 0 12.056-8.857zm-108.912-23.134a24.086 24.086 0 0 0 14.447 9.463v44.835a24.018 24.018 0 0 0 -12.681 7.3l-70.943-33.008a24.515 24.515 0 0 0 .361-4.1c0-.48-.044-.95-.072-1.421z" fill="#8c96a7" opacity=".06" transform="translate(-315.108 -43.002)"/></svg>